<?xml version="1.0" standalone="no"?>
<!DOCTYPE svg PUBLIC "-//W3C//DTD SVG 20010904//EN"
 "http://www.w3.org/TR/2001/REC-SVG-20010904/DTD/svg10.dtd">
<svg version="1.0" xmlns="http://www.w3.org/2000/svg"
 width="512.000000pt" height="512.000000pt" viewBox="0 0 512.000000 512.000000"
 preserveAspectRatio="xMidYMid meet">
<metadata>
Created by potrace 1.16, written by Peter Selinger 2001-2019
</metadata>
<g transform="translate(0.000000,512.000000) scale(0.100000,-0.100000)"
fill="#000000" stroke="none">
<path d="M2014 5108 c-59 -19 -127 -80 -159 -143 -28 -54 -30 -68 -33 -182
l-4 -123 161 0 161 0 0 75 0 75 420 0 420 0 0 -75 0 -75 160 0 160 0 0 113 c0
77 -5 128 -16 160 -19 57 -83 131 -138 160 -41 22 -45 22 -571 24 -339 1 -541
-2 -561 -9z"/>
<path d="M770 4338 c-25 -13 -55 -38 -67 -56 -31 -47 -133 -359 -133 -407 1
-49 17 -80 56 -106 28 -18 68 -19 1935 -19 l1906 0 34 23 c23 15 38 37 48 66
14 43 13 47 -48 232 -67 204 -87 239 -156 270 -38 18 -114 19 -1785 19 l-1746
0 -44 -22z"/>
<path d="M1063 3439 c-39 -11 -80 -59 -88 -102 -5 -27 223 -2927 240 -3057 15
-113 99 -222 201 -259 54 -21 68 -21 1142 -21 709 0 1100 4 1124 10 92 26 186
120 213 213 13 49 255 2966 255 3085 0 40 -5 57 -27 83 -53 63 46 59 -1560 58
-857 0 -1481 -5 -1500 -10z m685 -392 c13 -12 30 -34 38 -49 16 -31 172 -2515
161 -2560 -24 -92 -140 -139 -221 -88 -43 26 -65 69 -72 137 -3 32 -38 600
-79 1263 -72 1180 -74 1205 -56 1245 21 47 38 63 87 80 46 15 109 3 142 -28z
m909 1 c56 -52 53 27 53 -1345 0 -1248 0 -1269 -20 -1301 -59 -96 -197 -96
-255 0 -20 33 -20 51 -20 1303 l0 1270 22 35 c50 79 156 98 220 38z m903 4
c14 -10 33 -35 44 -56 18 -37 17 -52 -56 -1300 -82 -1391 -73 -1303 -144
-1346 -81 -51 -197 -4 -221 88 -4 15 26 587 66 1272 79 1350 74 1306 135 1345
56 37 123 35 176 -3z"/>
</g>
</svg>
