<svg width="0" height="0" class="hidden">
  <symbol version="1.0" xmlns="http://www.w3.org/2000/svg" preserveAspectRatio="xMidYMid meet" viewBox="0 0 512.000000 512.000000" id="close">
    <g transform="translate(0.000000,512.000000) scale(0.100000,-0.100000)" fill="#000000" stroke="none">
      <path d="M395 5076 c-170 -41 -316 -188 -355 -356 -28 -120 -7 -261 54 -364
14 -23 419 -435 900 -916 l876 -875 -888 -890 c-956 -958 -930 -929 -967
-1070 -29 -115 -13 -234 47 -347 94 -177 315 -263 549 -214 140 30 103 -3
1054 947 484 483 885 879 890 879 5 0 406 -395 890 -879 816 -815 885 -881
945 -909 207 -96 457 -57 600 94 135 142 166 360 78 543 -29 61 -99 133 -927
958 l-896 891 871 874 c543 544 881 890 897 918 44 78 60 152 55 259 -6 115
-30 185 -93 269 -123 163 -346 232 -540 166 -111 -37 -161 -84 -1029 -953
l-850 -850 -875 872 c-941 936 -918 916 -1056 952 -69 18 -160 18 -230 1z"></path>
    </g>
  </symbol>
  <symbol version="1.1" id="downarrow" xmlns="http://www.w3.org/2000/svg" xmlns:xlink="http://www.w3.org/1999/xlink" x="0px" y="0px" xml:space="preserve" viewBox="0 0 111.52 59.59">
    <polyline points="108.13,4.28 55.31,56.21 3.38,3.38 "></polyline>
  </symbol>
  <symbol version="1.0" xmlns="http://www.w3.org/2000/svg" preserveAspectRatio="xMidYMid meet" viewBox="0 0 512.000000 512.000000" id="popup">
    <g transform="translate(0.000000,512.000000) scale(0.100000,-0.100000)" fill="#000000" stroke="none">
      <path d="M1405 4673 c-47 -24 -86 -64 -106 -108 -17 -36 -19 -70 -19 -382 l0
-343 -340 0 c-285 0 -347 -3 -378 -16 -47 -19 -88 -58 -113 -106 -19 -37 -19
-77 -17 -1596 l3 -1558 25 -37 c14 -21 43 -50 64 -65 l39 -27 1546 -3 c1094
-2 1557 0 1584 8 49 14 106 65 128 115 17 36 19 73 19 383 l0 342 343 0 c309
0 346 2 382 19 50 22 101 79 115 128 8 27 10 490 8 1584 l-3 1545 -25 37 c-14
21 -43 50 -64 65 l-39 27 -1561 2 c-1408 2 -1564 1 -1591 -14z m2863 -1685 l2
-1278 -1280 0 -1280 0 0 1280 0 1280 1278 -2 1277 -3 3 -1277z m-2988 -550 c0
-660 4 -985 11 -1012 14 -50 82 -118 135 -134 32 -9 273 -12 1013 -12 l971 0
0 -215 0 -215 -1277 2 -1278 3 -3 1278 -2 1277 215 0 215 0 0 -972z"></path>
      <path d="M2480 3824 c-78 -34 -130 -111 -130 -194 0 -88 38 -152 115 -193 39
-21 51 -22 492 -25 l452 -3 3 -452 c3 -441 4 -453 25 -492 11 -22 32 -50 45
-62 80 -75 224 -68 300 13 59 63 58 52 58 670 0 419 -3 577 -12 608 -16 53
-81 118 -134 134 -31 9 -188 12 -610 12 -486 -1 -574 -3 -604 -16z"></path>
    </g>
  </symbol>
</svg>